PathFileType	4	(X/Y/Z)	path1_20_0-911.trc
DataRate	CameraRate	NumFrames	NumMarkers	Units	OrigDataRate	OrigDataStartFrame	OrigNumFrames
30	30	8	22	m	30	227	911
Frame#	Time	Hip			RHip			RKnee			RAnkle			RBigToe			RSmallToe			RHeel			LHip			LKnee			LAnkle			LBigToe			LSmallToe			LHeel			Neck			Head			Nose			RShoulder			RElbow			RWrist			LShoulder			LElbow			LWrist		
		X1	Y1	Z1	X2	Y2	Z2	X3	Y3	Z3	X4	Y4	Z4	X5	Y5	Z5	X6	Y6	Z6	X7	Y7	Z7	X8	Y8	Z8	X9	Y9	Z9	X10	Y10	Z10	X11	Y11	Z11	X12	Y12	Z12	X13	Y13	Z13	X14	Y14	Z14	X15	Y15	Z15	X16	Y16	Z16	X17	Y17	Z17	X18	Y18	Z18	X19	Y19	Z19	X20	Y20	Z20	X21	Y21	Z21	X22	Y22	Z22
228	7.6	2.5260801446720604	0.831025413986386	0.5976272792794911	2.528557888248293	0.7944204626565308	0.5188933827473747	2.4886670680726763	0.4634771020506743	0.5171856538980768	2.5259882258273896	0.11514914131761972	0.5323472797125297	2.352637906744953	0.03695795255615565	0.5279482973987283	2.3922272017484247	0.02169781197316973	0.47185716087034507	2.5939897898144713	0.03406037523023167	0.5679786439437802	2.516424194970716	0.794594883358922	0.6793849263483894	2.511650754133786	0.43582931898990684	0.6555351634303608	2.544753884342029	0.09435724200173409	0.6656861562633691	2.36896974588202	0.02612028660767967	0.6844252301844642	2.4024965187307266	0.02790230246664254	0.7373102550179729	2.5810159506699	0.04066532225192567	0.6701579587548155	2.501546226418589	1.4701307031767255	0.6122480152362257	2.4634777581882887	1.7104773584472823	0.5627693415833828	2.367324611524168	1.6053716427926277	0.5811699487094418	2.5569504152013143	1.3671723763335577	0.4348663823910591	2.5658343369654193	1.069971595116254	0.4127397098614769	2.51145454507009	0.8439263775282528	0.38581644452329805	2.4900111453267186	1.3450859005296163	0.7752803180113417	2.5285714323704465	1.0656688708576185	0.8052638365452867	2.5119687616287205	0.83274422027478	0.8134497209526853
229	7.633333333333334	2.526196489363044	0.8306388262313121	0.597224298775094	2.5282736271340953	0.7936324334149641	0.5185143978589026	2.48881056741358	0.46326314520070555	0.5169561502701788	2.52521697836187	0.11588794733931729	0.5316839098712676	2.3522701055310007	0.036607276688935216	0.5278304461010798	2.390559429066667	0.0219019798326324	0.47107211188691056	2.5899595678744785	0.036050387927492974	0.5640885580158064	2.5173105515670278	0.7927898324173066	0.6787720345069914	2.512516468458177	0.434668697770235	0.6550314771718716	2.5450425989991063	0.09399077423342754	0.6654173805122048	2.3693512031713766	0.0259932664349867	0.6843258052230636	2.4029086966785558	0.028069764380886802	0.7372245382679404	2.581289408044709	0.04065119020778628	0.6698290839331602	2.5014691981491923	1.4701122092705106	0.6124648559798255	2.4666430545716684	1.71127163979421	0.5613675454907173	2.36766874112984	1.6047899921463333	0.581447553889744	2.556959349602565	1.3666118288481657	0.43473504643219674	2.5641443470680185	1.0703354950252477	0.4099379430509128	2.5117977959838553	0.8441401757748181	0.38601804583766086	2.4905797616345895	1.3447039940323824	0.7752737554232505	2.5288837978878185	1.0657518775686885	0.8056716515841489	2.5120134401372227	0.8332886146673448	0.8136313469695392
230	7.666666666666667	2.5264515432066004	0.8301700049354614	0.5968615809499503	2.5278695279895054	0.7927397061576626	0.5181191128720775	2.489112160925976	0.463043955865047	0.5167530216191328	2.524762194826193	0.11626493974008853	0.5315206604152278	2.3519587489088605	0.036175897444240795	0.5277258418933419	2.3887317963092003	0.02220220412670749	0.47132845542331225	2.585422749876495	0.03815504646045916	0.5594667834634434	2.5181666167314862	0.7909545115306191	0.6781266436253884	2.5132104365611463	0.4336749660139219	0.6546386717927509	2.5449686366636244	0.09394703533434524	0.6652088679565733	2.3696770809941863	0.0258524889133986	0.6842202226578598	2.403306954800103	0.028256783007226276	0.7372310232549447	2.581916630599083	0.04038636327573643	0.669904096127808	2.501382678611221	1.4701097955697997	0.6125667535952617	2.4698955726788645	1.7124033973929447	0.560141507569607	2.368084311762271	1.6041908494921884	0.5815390351038651	2.5569567568823475	1.3660196432920795	0.43465461797318683	2.5627245704482915	1.0705294240255954	0.4076954826469601	2.5120816240150603	0.8443031355762866	0.38623480420242207	2.491307947515619	1.344292706098043	0.7752639982676007	2.529111252378255	1.065923326449123	0.8061692627739881	2.5121397811459647	0.833833159011494	0.813734881757723
231	7.7	2.526884677060349	0.8297536156130445	0.59660419852888	2.5275075131998834	0.7919561722945885	0.5178167477754445	2.48947783134033	0.4628916225057416	0.516593781568075	2.5246137123812344	0.11628499417149037	0.5315846531297872	2.3517524776734744	0.03580103235458792	0.527609649731721	2.3872842586702214	0.02235608923743608	0.4722512910415721	2.5814364147663333	0.03984068653034393	0.555172855809597	2.518949933635056	0.789485038809962	0.6775845799825997	2.51379537227886	0.43295821068793616	0.6544149977806034	2.5448007426190755	0.09394884712916625	0.6650246319541326	2.369896644898574	0.025729094962991795	0.6841197182068297	2.4036289795344747	0.028431585436753302	0.7373019794324559	2.5831566893367324	0.03980940340049425	0.670682210751124	2.501347991120799	1.4700987436921014	0.6126251210801906	2.4723394860163745	1.7134334696128923	0.5594798121688401	2.3685239258904067	1.6036877298904968	0.5813901585079667	2.557028019231291	1.3654994970136978	0.43471187104743975	2.562085963222005	1.070537242959588	0.4066403167356691	2.512394296816192	0.8444324535489256	0.3864066084728079	2.492026600457655	1.3439396495893354	0.7753041256834898	2.529234797901584	1.0662261421126291	0.8066660403329441	2.5124029438389996	0.8343022144253021	0.8137310726635494
232	7.733333333333333	2.5273542805474936	0.8294860114738217	0.5964389780102342	2.527251644976605	0.7913680349188736	0.5176560776689549	2.489804694489988	0.46283553188365095	0.5165081830196346	2.524735156723593	0.11600862179859506	0.5316604340740321	2.3516467890979422	0.03550693079748231	0.52743540262821	2.38664169794962	0.02217455989020724	0.47333597456978543	2.57869342243589	0.04081960072872831	0.5519890138005152	2.519584600510631	0.7884905033263787	0.6772152321523722	2.5143254700613866	0.43253870534061034	0.6543444624290955	2.5446962733857275	0.09385576337786235	0.6648192003793733	2.3700111836919477	0.02564373158978027	0.6840186379852863	2.403849493558763	0.02858642808247418	0.7374186802887518	2.5848424396641656	0.039034871602262836	0.6720048131577753	2.5013634346681055	1.4700606540531753	0.6126851437776125	2.473837084870387	1.7141167200627223	0.5592051281459689	2.3689362665443228	1.6033667985268796	0.5810902664258526	2.5572061225330307	1.3651158755475954	0.4349258776059431	2.562303585198237	1.0704620548330621	0.4067835485473583	2.5127696171577227	0.8445895376117448	0.3865578391961668	2.4925231338492004	1.3436749503601721	0.7754114149560167	2.529259998411629	1.0666103568011032	0.807069863267243	2.5127786954303275	0.834621848586834	0.813649247320886
233	7.766666666666667	2.5277375954382664	0.8293734404962589	0.5963140081516248	2.527111688692004	0.7909734773485059	0.5176279677112388	2.490089476605666	0.46285383017946724	0.5165224044255975	2.5250566313040093	0.1155532410620192	0.5316317878471577	2.3516231209967233	0.03522233837235243	0.5272385935783108	2.3867247472680693	0.021702379147067286	0.47416299986403576	2.5772254510601837	0.04115177299203847	0.5500873500676169	2.5200435224913256	0.7878864479944131	0.6770437555421207	2.5148130712938155	0.4323781677880737	0.6543585240079326	2.544735625085733	0.09368679656225032	0.6645604001225187	2.3700573242831076	0.025621708812447616	0.6839184865296813	2.404001760501821	0.028728998560043687	0.737568669570847	2.5864514408539434	0.03829318900740446	0.6732770180628518	2.5014066112097413	1.469989024542498	0.6127686128122896	2.474607930956838	1.714363095280029	0.5589148605629529	2.36927014217273	1.6032407600803904	0.5808068542446458	2.557447992554036	1.3648888614587278	0.4351876561624329	2.5634100877569717	1.070364843447573	0.40812025274041075	2.513162594034208	0.8448266399018822	0.3867398365740096	2.4927600087284483	1.3434969469032663	0.7756009552897504	2.529223269794988	1.0669697533979496	0.807327288698905	2.513172125101858	0.8347291609565736	0.8135362822640554
234	7.8	2.528018905604858	0.8293775084588201	0.5961986809831304	2.527092680508293	0.7907582729712154	0.5177099332137235	2.4903942166517985	0.4629004103105678	0.5166379195623039	2.525481667634956	0.11507245506731802	0.5315137629401651	2.3516480289391097	0.034864296568121574	0.5271278782154782	2.387006640801303	0.021220803431889486	0.4744603721966285	2.576722398881062	0.04107595873244172	0.549233103584039	2.5203622677363096	0.7875748367895523	0.6770655221649311	2.51525703478239	0.43243018271456046	0.6544032802681786	2.5449431729676864	0.09355306264483192	0.6642971994248265	2.3701001232313677	0.025680706794054015	0.6838447102996354	2.4041742501962817	0.028876208319590896	0.7377598642731487	2.587475000083894	0.03779813026309394	0.6739202650307324	2.5014717629357923	1.4698949226394846	0.612867989990003	2.474936236191633	1.714224518308083	0.5583716387548645	2.369481606586666	1.603279611396021	0.5806491832897835	2.557680334141993	1.3648260276704862	0.4353404774106806	2.565385833848609	1.0702174520402703	0.41062727255620257	2.513523381549404	0.8451511112728449	0.3869702230765686	2.4928745120147884	1.3434136514531634	0.7758806934079508	2.5292035560721353	1.067202494232741	0.8074373379380065	2.513487215446351	0.8346104186204906	0.8134158691864045
235	7.833333333333333	2.5282240503035185	0.8294589028857485	0.59611043825015	2.5271827439819514	0.7907013659109993	0.5178839140241553	2.4907602213870996	0.46292442786087795	0.5168186189870707	2.5259129535371447	0.11469296228263323	0.5314016815176826	2.3516400477413133	0.0343457804281711	0.5271803400302844	2.386957985747031	0.02105461783938172	0.47424483281612495	2.5768310655436104	0.040836061220579006	0.5490718425624533	2.5206007933565417	0.7874871483310237	0.6772305275126469	2.5156788712864477	0.4326382233830325	0.6544634775573684	2.545279069157438	0.09359956121670865	0.6642053677013836	2.3701788409829296	0.025826385319118555	0.683813957502377	2.404390040581199	0.029047423508189788	0.737979949365304	2.587936807588985	0.03755374439987282	0.6739688380650343	2.50157493443651	1.4698075313774281	0.6129381722811998	2.4750621264218386	1.7138303431487014	0.5576815250353169	2.3695767811840915	1.6034421901112195	0.5806200527609415	2.5578680451057796	1.364923539355482	0.43534848040407065	2.5677380161078314	1.0700454340788015	0.41364945734654024	2.5138440751781745	0.8455074116643218	0.38722177859382667	2.4930351148046475	1.3434407302533764	0.776213746569396	2.5292872458737845	1.0672542579043993	0.8074234346447821	2.5136997611526106	0.8343225700395208	0.8132811313063104
